<svg width="1477" height="630" viewBox="0 0 1477 630" fill="none" xmlns="http://www.w3.org/2000/svg">
<rect width="1477" height="630" fill="white"/>
<path d="M181.649 475.295C202.781 475.295 219.913 458.164 219.913 437.031C219.913 415.898 202.781 398.767 181.649 398.767C160.516 398.767 143.384 415.898 143.384 437.031C143.384 458.164 160.516 475.295 181.649 475.295Z" fill="#3C5BFF"/>
<path d="M135.511 551.746C156.644 551.746 173.776 534.614 173.776 513.481C173.776 492.348 156.644 475.217 135.511 475.217C114.378 475.217 97.2468 492.348 97.2468 513.481C97.2468 534.614 114.378 551.746 135.511 551.746Z" fill="#3C5BFF"/>
<path d="M219.913 551.746C241.046 551.746 258.177 534.614 258.177 513.481C258.177 492.348 241.046 475.217 219.913 475.217C198.78 475.217 181.648 492.348 181.648 513.481C181.648 534.614 198.78 551.746 219.913 551.746Z" fill="#3C5BFF"/>
<path fill-rule="evenodd" clip-rule="evenodd" d="M193.182 437.533C193.184 439.049 192.887 440.549 192.308 441.95C191.73 443.35 190.88 444.623 189.808 445.694C188.737 446.766 187.465 447.615 186.064 448.194C184.664 448.773 183.163 449.07 181.648 449.068C178.589 449.068 175.655 447.852 173.492 445.689C171.329 443.526 170.114 440.593 170.114 437.533C170.114 434.474 171.329 431.54 173.492 429.377C175.655 427.214 178.589 425.999 181.648 425.999C184.707 425.999 187.641 427.214 189.804 429.377C191.967 431.54 193.182 434.474 193.182 437.533V437.533Z" stroke="white" stroke-width="2.04287" stroke-miterlimit="10"/>
<path d="M181.648 419.274V412.815" stroke="white" stroke-width="2.04287" stroke-miterlimit="10"/>
<path d="M181.648 461.262V454.788" stroke="white" stroke-width="2.04287" stroke-miterlimit="10"/>
<path d="M163.891 437.031H157.432" stroke="white" stroke-width="2.04287" stroke-miterlimit="10"/>
<path d="M205.864 437.031H199.405" stroke="white" stroke-width="2.04287" stroke-miterlimit="10"/>
<path d="M169.092 449.587L164.519 454.16" stroke="white" stroke-width="2.04287" stroke-miterlimit="10"/>
<path d="M198.777 419.918L194.204 424.475" stroke="white" stroke-width="2.04287" stroke-miterlimit="10"/>
<path d="M194.204 449.587L198.777 454.16" stroke="white" stroke-width="2.04287" stroke-miterlimit="10"/>
<path d="M164.519 419.918L169.092 424.475" stroke="white" stroke-width="2.04287" stroke-miterlimit="10"/>
<path d="M141.325 500.564C141.325 500.407 141.325 500.234 141.325 500.077C141.325 498.56 140.723 497.105 139.65 496.032C138.577 494.96 137.122 494.357 135.605 494.357C134.853 494.355 134.107 494.501 133.412 494.788C132.716 495.074 132.083 495.495 131.551 496.027C131.018 496.558 130.595 497.189 130.307 497.884C130.018 498.579 129.87 499.325 129.87 500.077C129.87 500.234 129.87 500.313 129.87 500.564C130.231 504.917 135.605 511.847 135.605 511.847C140.791 504.131 141.325 500.564 141.325 500.564Z" stroke="white" stroke-width="2.04287" stroke-miterlimit="10"/>
<path d="M125.501 502.843L125.061 502.639C124.364 502.35 123.616 502.201 122.862 502.203C122.107 502.205 121.36 502.356 120.665 502.648C119.969 502.941 119.338 503.368 118.809 503.906C118.279 504.444 117.862 505.081 117.581 505.782C117.291 506.479 117.143 507.226 117.145 507.981C117.147 508.735 117.298 509.482 117.59 510.178C117.883 510.874 118.31 511.504 118.848 512.034C119.386 512.563 120.023 512.981 120.724 513.262C120.871 513.335 121.023 513.398 121.179 513.45C125.328 514.802 133.751 512.507 133.751 512.507C128.565 504.745 125.501 502.827 125.501 502.843Z" stroke="white" stroke-width="2.04287" stroke-miterlimit="10"/>
<path d="M121.258 516.608L120.85 516.876C120.244 517.32 119.731 517.88 119.342 518.522C118.952 519.165 118.693 519.878 118.579 520.621C118.466 521.364 118.499 522.122 118.678 522.851C118.858 523.581 119.179 524.269 119.624 524.874C120.067 525.481 120.626 525.995 121.268 526.386C121.91 526.777 122.623 527.038 123.366 527.153C124.109 527.268 124.867 527.236 125.597 527.058C126.328 526.88 127.016 526.56 127.623 526.116L128.015 525.817C131.315 522.957 133.72 514.534 133.72 514.534C124.48 514.974 121.258 516.593 121.258 516.608Z" stroke="white" stroke-width="2.04287" stroke-miterlimit="10"/>
<path d="M130.86 526.744C130.86 526.917 130.86 527.074 130.86 527.231C130.904 527.982 131.096 528.717 131.425 529.394C131.754 530.07 132.214 530.675 132.778 531.173C133.341 531.671 133.998 532.052 134.71 532.296C135.422 532.539 136.175 532.639 136.926 532.59C137.676 532.544 138.41 532.35 139.085 532.021C139.761 531.691 140.364 531.231 140.862 530.668C141.36 530.104 141.742 529.448 141.986 528.737C142.23 528.026 142.331 527.274 142.284 526.524C142.284 526.367 142.284 526.288 142.284 526.037C141.656 521.716 135.873 515.147 135.873 515.147C131.221 523.146 130.844 526.744 130.86 526.744Z" stroke="white" stroke-width="2.04287" stroke-miterlimit="10"/>
<path d="M144.955 524.748L145.363 525C146.022 525.364 146.745 525.594 147.492 525.678C148.24 525.762 148.996 525.698 149.719 525.489C150.441 525.281 151.116 524.931 151.703 524.462C152.29 523.992 152.779 523.411 153.142 522.753C153.518 522.091 153.759 521.361 153.849 520.605C153.94 519.85 153.879 519.084 153.67 518.352C153.46 517.62 153.107 516.937 152.631 516.344C152.154 515.75 151.564 515.258 150.895 514.895L150.471 514.66C146.479 512.868 137.899 514.235 137.899 514.235C142.111 522.564 144.939 524.748 144.955 524.748Z" stroke="white" stroke-width="2.04287" stroke-miterlimit="10"/>
<path d="M150.439 512.445L150.879 512.241C151.54 511.882 152.124 511.396 152.597 510.812C153.07 510.228 153.423 509.556 153.636 508.835C153.849 508.114 153.918 507.358 153.838 506.61C153.759 505.863 153.533 505.138 153.174 504.478C152.819 503.813 152.336 503.225 151.754 502.747C151.171 502.269 150.5 501.911 149.779 501.694C149.057 501.476 148.3 501.403 147.551 501.479C146.801 501.555 146.074 501.778 145.411 502.136L144.986 502.356C141.325 504.761 137.805 512.775 137.805 512.775C147.029 513.639 150.439 512.461 150.439 512.445Z" stroke="white" stroke-width="2.04287" stroke-miterlimit="10"/>
<path d="M219.819 492.486V524.952V533.579" stroke="white" stroke-width="2.04287" stroke-miterlimit="10"/>
<path d="M214.444 529.981L219.818 524.953L225.302 529.981" stroke="white" stroke-width="2.04287" stroke-miterlimit="10"/>
<path d="M225.24 496.196L219.866 501.224L214.382 496.196" stroke="white" stroke-width="2.04287" stroke-miterlimit="10"/>
<path d="M202.265 503.094L230.331 519.39L237.796 523.727" stroke="white" stroke-width="2.04287" stroke-miterlimit="10"/>
<path d="M231.981 526.571L230.331 519.39L237.45 517.174" stroke="white" stroke-width="2.04287" stroke-miterlimit="10"/>
<path d="M208.19 500.265L209.84 507.447L202.721 509.662" stroke="white" stroke-width="2.04287" stroke-miterlimit="10"/>
<path d="M237.575 502.717L209.494 518.997L202.03 523.335" stroke="white" stroke-width="2.04287" stroke-miterlimit="10"/>
<path d="M207.844 526.178L209.494 518.996L202.391 516.781" stroke="white" stroke-width="2.04287" stroke-miterlimit="10"/>
<path d="M231.652 499.888L230.002 507.07L237.105 509.285" stroke="white" stroke-width="2.04287" stroke-miterlimit="10"/>
<path d="M223.831 240.506H130.749V154.43L158.132 125.129H223.831V240.506Z" fill="white" stroke="black" stroke-width="1.75813"/>
<path d="M129.87 154.113H159.133L157.838 124.25L129.87 154.113Z" fill="#0B0723"/>
<path d="M214.019 172.554H159.429V175.656H214.019V172.554Z" fill="#4056F4"/>
<path d="M214.019 188.509H159.429V191.611H214.019V188.509Z" fill="#4056F4"/>
<path d="M214.019 204.463H159.429V207.565H214.019V204.463Z" fill="#4056F4"/>
<path d="M144.961 174.357L147.226 176.623L147.64 177.037L148.055 176.623L154.238 170.444L154.924 171.13L147.64 178.411L144.274 175.045L144.961 174.357Z" fill="#00B594" stroke="#3C5BFF" stroke-width="1.17209"/>
<path d="M144.961 189.99L147.226 192.255L147.64 192.67L148.055 192.256L154.238 186.077L154.924 186.763L147.64 194.044L144.274 190.677L144.961 189.99Z" fill="#00B594" stroke="#3C5BFF" stroke-width="1.17209"/>
<path d="M144.961 204.393L147.226 206.659L147.64 207.073L148.055 206.659L154.238 200.48L154.924 201.166L147.64 208.447L144.274 205.081L144.961 204.393Z" fill="#00B594" stroke="#3C5BFF" stroke-width="1.17209"/>
<path d="M920.171 305.814C920.171 420.082 827.538 512.715 713.27 512.715C599.001 512.715 506.368 420.082 506.368 305.814C506.368 191.545 599.001 98.9123 713.27 98.9123C827.538 98.9123 920.171 191.545 920.171 305.814Z" stroke="#3C5BFF" stroke-width="1.75813"/>
<path d="M713.27 473.766C806.028 473.766 881.223 398.571 881.223 305.813C881.223 213.055 806.028 137.859 713.27 137.859C620.512 137.859 545.316 213.055 545.316 305.813C545.316 398.571 620.512 473.766 713.27 473.766Z" fill="#E5EAEF"/>
<circle cx="1241.6" cy="258.041" r="2.44318" fill="white"/>
<path d="M1003.49 140.722H1006.53V156.859H1003.49V140.722ZM1017.02 150.802C1017.02 149.118 1016.72 147.785 1014.99 147.785C1013.14 147.785 1012.51 149.328 1012.51 151.223V156.859H1009.52V145.54H1012.51L1012.49 147.247H1012.56C1013.17 146.054 1014.31 145.329 1015.95 145.329C1019.2 145.329 1020.02 147.434 1020.02 150.147V156.859H1017.02V150.802ZM1024.31 143.739C1023.26 143.739 1022.51 143.06 1022.51 142.078C1022.51 141.119 1023.26 140.418 1024.31 140.418C1025.36 140.418 1026.11 141.119 1026.11 142.078C1026.11 143.06 1025.36 143.739 1024.31 143.739ZM1022.81 145.54H1025.81V156.859H1022.81V145.54ZM1032.14 152.462C1032.14 154.193 1032.45 154.614 1033.5 154.614C1034.11 154.614 1034.57 154.427 1034.57 154.427L1034.74 156.742C1034.6 156.789 1033.71 157.117 1032.45 157.117C1030.13 157.117 1029.17 156.064 1029.17 153.117V147.878H1027.49V145.563H1029.17V142.335H1032.14V145.563H1034.76V147.878H1032.14V152.462ZM1038.06 143.739C1037.01 143.739 1036.26 143.06 1036.26 142.078C1036.26 141.119 1037.01 140.418 1038.06 140.418C1039.11 140.418 1039.86 141.119 1039.86 142.078C1039.86 143.06 1039.11 143.739 1038.06 143.739ZM1036.56 145.54H1039.55V156.859H1036.56V145.54ZM1048.98 155.55C1048.51 156.368 1047.2 157.117 1045.52 157.117C1043.32 157.117 1041.54 155.924 1041.54 153.562C1041.54 151.199 1043.86 150.287 1046.19 150.124L1048.91 149.937V149.633C1048.91 148.182 1047.95 147.504 1046.38 147.504C1044.89 147.504 1043.65 148.066 1043.15 148.44L1042.24 146.522C1043.11 146.007 1044.7 145.329 1046.66 145.329C1048.67 145.329 1049.82 145.844 1050.66 146.639C1051.48 147.434 1051.9 148.463 1051.9 150.381V156.859H1049.02L1048.98 155.55ZM1046.9 151.878C1045.31 151.971 1044.53 152.509 1044.53 153.468C1044.53 154.427 1045.26 155.082 1046.5 155.082C1047.67 155.082 1048.53 154.404 1048.93 153.842V151.761L1046.9 151.878ZM1054.58 140.722H1057.55V156.859H1054.58V140.722ZM1068.13 147.13L1068.17 147.153C1069.09 145.797 1070.44 145.282 1071.94 145.282C1075.26 145.282 1077.29 147.855 1077.29 151.223C1077.29 154.427 1075.17 157.07 1071.73 157.07C1070 157.07 1069.04 156.462 1068.1 155.339L1068.06 155.363C1068.08 155.9 1068.1 156.415 1068.1 157.21V161.139H1065.13V145.54H1068.17L1068.13 147.13ZM1071.1 147.715C1069.3 147.715 1068.03 149.095 1068.03 151.223C1068.03 153.117 1069.27 154.778 1071.19 154.778C1073.13 154.778 1074.25 153.117 1074.25 151.223C1074.25 149.258 1073.04 147.715 1071.1 147.715ZM1079.38 145.54H1082.35L1082.31 147.364H1082.38C1082.82 146.148 1083.94 145.329 1085.16 145.329C1085.93 145.329 1086.35 145.54 1086.35 145.54L1086.14 148.136H1086C1085.67 148.042 1085.16 147.995 1084.76 147.995C1083.87 147.995 1083.2 148.37 1082.77 149.095C1082.49 149.656 1082.35 150.428 1082.35 151.293V156.859H1079.38V145.54ZM1089.42 143.739C1088.37 143.739 1087.62 143.06 1087.62 142.078C1087.62 141.119 1088.37 140.418 1089.42 140.418C1090.48 140.418 1091.23 141.119 1091.23 142.078C1091.23 143.06 1090.48 143.739 1089.42 143.739ZM1087.93 145.54H1090.92V156.859H1087.93V145.54ZM1102.5 153.398L1103.34 155.596C1103.1 155.807 1101.93 157.117 1098.92 157.117C1095.83 157.117 1092.98 154.988 1092.98 151.293C1092.98 147.574 1095.92 145.329 1098.96 145.329C1101.82 145.329 1102.94 146.475 1103.24 146.779L1102.43 149.024C1102.08 148.697 1101.07 147.832 1099.32 147.832C1097.54 147.832 1096.11 149.071 1096.11 151.153C1096.11 153.234 1097.54 154.591 1099.48 154.591C1101.42 154.591 1102.5 153.398 1102.5 153.398ZM1107.28 152.158C1107.56 153.959 1108.94 154.825 1110.65 154.825C1112.17 154.825 1113.52 154.146 1114.06 153.679L1115.23 155.292C1114.6 155.947 1112.89 157.117 1110.13 157.117C1106.72 157.117 1104.19 155.035 1104.19 151.387C1104.19 147.761 1106.84 145.329 1110.06 145.329C1113.55 145.329 1115.65 147.621 1115.65 150.638C1115.65 151.223 1115.61 152.158 1115.61 152.158H1107.28ZM1110.04 147.551C1108.26 147.551 1107.33 148.791 1107.23 150.217H1112.66C1112.61 148.978 1112.14 147.551 1110.04 147.551Z" fill="black"/>
<path d="M1270.77 140.722H1275.94C1277.25 140.722 1278.46 140.839 1279.52 141.353C1280.78 141.961 1281.6 142.944 1281.6 144.791C1281.6 146.756 1280.15 147.902 1279.1 148.323V148.37C1281.18 148.837 1282.56 150.194 1282.56 152.252C1282.56 154.006 1281.74 155.269 1280.64 155.971C1279.63 156.602 1278.21 156.859 1276.66 156.859H1270.77V140.722ZM1275.7 147.457C1276.55 147.457 1277.13 147.364 1277.62 147.06C1278.18 146.709 1278.51 146.148 1278.51 145.189C1278.51 143.786 1277.41 143.107 1275.84 143.107H1273.81V147.457H1275.7ZM1276.43 154.474C1277.2 154.474 1277.95 154.45 1278.58 154.029C1279.12 153.679 1279.47 152.954 1279.47 152.112C1279.47 151.223 1279.07 150.615 1278.46 150.194C1277.86 149.773 1277.22 149.679 1276.29 149.679H1273.81V154.474H1276.43ZM1287.04 152.158C1287.32 153.959 1288.7 154.825 1290.4 154.825C1291.92 154.825 1293.28 154.146 1293.82 153.679L1294.99 155.292C1294.36 155.947 1292.65 157.117 1289.89 157.117C1286.47 157.117 1283.95 155.035 1283.95 151.387C1283.95 147.761 1286.59 145.329 1289.82 145.329C1293.3 145.329 1295.41 147.621 1295.41 150.638C1295.41 151.223 1295.36 152.158 1295.36 152.158H1287.04ZM1289.79 147.551C1288.02 147.551 1287.08 148.791 1286.99 150.217H1292.41C1292.37 148.978 1291.9 147.551 1289.79 147.551ZM1303.92 148.533C1303.27 148.042 1302.31 147.574 1301.28 147.574C1300.3 147.574 1299.8 147.949 1299.8 148.486C1299.8 148.978 1300.18 149.375 1301.44 149.773L1302.24 150.03C1304.74 150.849 1305.63 151.737 1305.63 153.375C1305.63 155.526 1303.92 157.117 1301.14 157.117C1299.41 157.117 1297.47 156.415 1296.55 155.363L1297.77 153.328C1299.1 154.357 1300.25 154.871 1301.21 154.871C1302.33 154.871 1302.84 154.45 1302.84 153.796C1302.84 153.211 1302.4 152.883 1300.95 152.392L1299.64 151.948C1297.96 151.387 1297.09 150.381 1297.09 148.72C1297.09 146.662 1298.96 145.329 1301.14 145.329C1303.15 145.329 1304.27 145.867 1305.21 146.545L1303.92 148.533ZM1310.98 152.462C1310.98 154.193 1311.28 154.614 1312.33 154.614C1312.94 154.614 1313.41 154.427 1313.41 154.427L1313.57 156.742C1313.43 156.789 1312.54 157.117 1311.28 157.117C1308.96 157.117 1308 156.064 1308 153.117V147.878H1306.32V145.563H1308V142.335H1310.98V145.563H1313.59V147.878H1310.98V152.462ZM1323 147.13L1323.05 147.153C1323.96 145.797 1325.32 145.282 1326.81 145.282C1330.14 145.282 1332.17 147.855 1332.17 151.223C1332.17 154.427 1330.04 157.07 1326.6 157.07C1324.87 157.07 1323.91 156.462 1322.98 155.339L1322.93 155.363C1322.96 155.9 1322.98 156.415 1322.98 157.21V161.139H1320.01V145.54H1323.05L1323 147.13ZM1325.97 147.715C1324.17 147.715 1322.91 149.095 1322.91 151.223C1322.91 153.117 1324.15 154.778 1326.07 154.778C1328.01 154.778 1329.13 153.117 1329.13 151.223C1329.13 149.258 1327.91 147.715 1325.97 147.715ZM1334.26 145.54H1337.23L1337.18 147.364H1337.25C1337.7 146.148 1338.82 145.329 1340.04 145.329C1340.81 145.329 1341.23 145.54 1341.23 145.54L1341.02 148.136H1340.88C1340.55 148.042 1340.04 147.995 1339.64 147.995C1338.75 147.995 1338.07 148.37 1337.65 149.095C1337.37 149.656 1337.23 150.428 1337.23 151.293V156.859H1334.26V145.54ZM1344.3 143.739C1343.25 143.739 1342.5 143.06 1342.5 142.078C1342.5 141.119 1343.25 140.418 1344.3 140.418C1345.35 140.418 1346.1 141.119 1346.1 142.078C1346.1 143.06 1345.35 143.739 1344.3 143.739ZM1342.8 145.54H1345.8V156.859H1342.8V145.54ZM1357.37 153.398L1358.21 155.596C1357.98 155.807 1356.81 157.117 1353.79 157.117C1350.71 157.117 1347.85 154.988 1347.85 151.293C1347.85 147.574 1350.8 145.329 1353.84 145.329C1356.69 145.329 1357.82 146.475 1358.12 146.779L1357.3 149.024C1356.95 148.697 1355.94 147.832 1354.19 147.832C1352.41 147.832 1350.99 149.071 1350.99 151.153C1350.99 153.234 1352.41 154.591 1354.35 154.591C1356.3 154.591 1357.37 153.398 1357.37 153.398ZM1362.16 152.158C1362.44 153.959 1363.82 154.825 1365.52 154.825C1367.04 154.825 1368.4 154.146 1368.94 153.679L1370.11 155.292C1369.48 155.947 1367.77 157.117 1365.01 157.117C1361.59 157.117 1359.07 155.035 1359.07 151.387C1359.07 147.761 1361.71 145.329 1364.94 145.329C1368.42 145.329 1370.53 147.621 1370.53 150.638C1370.53 151.223 1370.48 152.158 1370.48 152.158H1362.16ZM1364.91 147.551C1363.14 147.551 1362.2 148.791 1362.11 150.217H1367.53C1367.49 148.978 1367.02 147.551 1364.91 147.551Z" fill="black"/>
<path d="M1057.29 133.61C1076.91 133.61 1092.82 117.682 1092.82 98.0327C1092.82 78.3837 1076.91 62.4551 1057.29 62.4551C1037.67 62.4551 1021.76 78.3837 1021.76 98.0327C1021.76 117.682 1037.67 133.61 1057.29 133.61Z" fill="#4056F4"/>
<path d="M1052.8 534.344C1075.46 534.344 1093.82 515.978 1093.82 493.321C1093.82 470.665 1075.46 452.298 1052.8 452.298C1030.15 452.298 1011.78 470.665 1011.78 493.321C1011.78 515.978 1030.15 534.344 1052.8 534.344Z" fill="#4056F4"/>
<path d="M1060.1 114.242H1055.97V87.0687H1050.05V83.9519H1060.1V114.242Z" fill="white"/>
<path d="M1067.84 501.186C1067.84 505.338 1064.94 508.148 1061 508.148C1057.06 508.148 1054.16 505.338 1054.16 501.186C1054.16 497.033 1057.06 494.223 1061 494.223C1064.94 494.223 1067.84 497.033 1067.84 501.186ZM1062.81 479.291L1044.9 508.61L1042.8 507.351L1060.71 478.033L1062.81 479.291ZM1051.44 485.457C1051.44 489.609 1048.54 492.461 1044.6 492.461C1040.66 492.461 1037.76 489.609 1037.76 485.457C1037.76 481.346 1040.66 478.494 1044.6 478.494C1048.54 478.494 1051.44 481.346 1051.44 485.457ZM1064.9 501.144C1064.9 498.627 1063.39 496.782 1061 496.782C1058.61 496.782 1057.1 498.627 1057.1 501.144C1057.1 503.702 1058.61 505.506 1061 505.506C1063.39 505.506 1064.9 503.702 1064.9 501.144ZM1048.5 485.457C1048.5 482.898 1046.99 481.095 1044.6 481.095C1042.21 481.095 1040.7 482.898 1040.7 485.457C1040.7 487.973 1042.21 489.777 1044.6 489.777C1046.99 489.777 1048.5 487.973 1048.5 485.457Z" fill="white"/>
<path d="M1013.25 548.702H1018.42C1021.22 548.702 1023.31 549.614 1024.54 550.737C1025.81 551.836 1027.12 553.684 1027.12 556.748C1027.12 559.835 1025.81 561.729 1024.54 562.828C1023.31 563.928 1021.22 564.84 1018.42 564.84H1013.25V548.702ZM1018.53 562.267C1020.29 562.267 1021.57 561.682 1022.37 560.934C1023.14 560.186 1023.98 558.946 1023.98 556.771C1023.98 554.619 1023.14 553.31 1022.37 552.561C1021.57 551.836 1020.29 551.251 1018.53 551.251H1016.29V562.267H1018.53ZM1031.07 551.719C1030.02 551.719 1029.27 551.041 1029.27 550.059C1029.27 549.1 1030.02 548.398 1031.07 548.398C1032.12 548.398 1032.87 549.1 1032.87 550.059C1032.87 551.041 1032.12 551.719 1031.07 551.719ZM1029.58 553.52H1032.57V564.84H1029.58V553.52ZM1041.95 556.514C1041.29 556.023 1040.33 555.555 1039.3 555.555C1038.32 555.555 1037.83 555.929 1037.83 556.467C1037.83 556.958 1038.2 557.356 1039.47 557.753L1040.26 558.011C1042.76 558.829 1043.65 559.718 1043.65 561.355C1043.65 563.507 1041.95 565.097 1039.16 565.097C1037.43 565.097 1035.49 564.395 1034.58 563.343L1035.79 561.308C1037.13 562.337 1038.27 562.852 1039.23 562.852C1040.36 562.852 1040.87 562.431 1040.87 561.776C1040.87 561.191 1040.43 560.864 1038.98 560.373L1037.67 559.928C1035.98 559.367 1035.12 558.361 1035.12 556.701C1035.12 554.643 1036.99 553.31 1039.16 553.31C1041.17 553.31 1042.3 553.848 1043.23 554.526L1041.95 556.514ZM1054.24 561.378L1055.08 563.577C1054.85 563.787 1053.68 565.097 1050.66 565.097C1047.57 565.097 1044.72 562.969 1044.72 559.274C1044.72 555.555 1047.67 553.31 1050.71 553.31C1053.56 553.31 1054.68 554.456 1054.99 554.76L1054.17 557.005C1053.82 556.677 1052.81 555.812 1051.06 555.812C1049.28 555.812 1047.85 557.052 1047.85 559.133C1047.85 561.215 1049.28 562.571 1051.22 562.571C1053.16 562.571 1054.24 561.378 1054.24 561.378ZM1062.13 565.097C1058.65 565.097 1055.98 562.805 1055.98 559.227C1055.98 555.648 1058.65 553.31 1062.13 553.31C1065.59 553.31 1068.26 555.648 1068.26 559.227C1068.26 562.805 1065.59 565.097 1062.13 565.097ZM1065.17 559.157C1065.17 557.215 1064.05 555.719 1062.13 555.719C1060.17 555.719 1059.09 557.215 1059.09 559.157C1059.09 561.098 1060.17 562.618 1062.13 562.618C1064.05 562.618 1065.17 561.098 1065.17 559.157ZM1073.1 559.578C1073.1 561.261 1073.38 562.595 1075.11 562.595C1076.91 562.595 1077.59 561.168 1077.59 559.274V553.52H1080.59V564.84H1077.69L1077.66 563.249C1077.01 564.372 1075.79 565.05 1074.16 565.05C1070.9 565.05 1070.11 562.945 1070.11 560.232V553.52H1073.1V559.578ZM1090.85 558.782C1090.85 557.098 1090.54 555.765 1088.81 555.765C1086.96 555.765 1086.33 557.309 1086.33 559.203V564.84H1083.34V553.52H1086.33L1086.31 555.227H1086.38C1086.99 554.035 1088.13 553.31 1089.77 553.31C1093.02 553.31 1093.84 555.415 1093.84 558.128V564.84H1090.85V558.782ZM1100.02 560.443C1100.02 562.174 1100.33 562.595 1101.38 562.595C1101.99 562.595 1102.46 562.407 1102.46 562.407L1102.62 564.723C1102.48 564.77 1101.59 565.097 1100.33 565.097C1098.01 565.097 1097.05 564.045 1097.05 561.098V555.859H1095.37V553.543H1097.05V550.316H1100.02V553.543H1102.64V555.859H1100.02V560.443ZM1035.46 578.11L1035.5 578.134C1036.42 576.777 1037.77 576.263 1039.27 576.263C1042.59 576.263 1044.63 578.835 1044.63 582.203C1044.63 585.407 1042.5 588.05 1039.06 588.05C1037.33 588.05 1036.37 587.442 1035.43 586.32L1035.39 586.343C1035.41 586.881 1035.43 587.395 1035.43 588.191V592.12H1032.46V576.52H1035.5L1035.46 578.11ZM1038.43 578.695C1036.63 578.695 1035.36 580.075 1035.36 582.203C1035.36 584.098 1036.6 585.758 1038.52 585.758C1040.46 585.758 1041.59 584.098 1041.59 582.203C1041.59 580.239 1040.37 578.695 1038.43 578.695ZM1046.71 576.52H1049.68L1049.64 578.344H1049.71C1050.15 577.128 1051.28 576.31 1052.49 576.31C1053.26 576.31 1053.68 576.52 1053.68 576.52L1053.47 579.116H1053.33C1053.01 579.023 1052.49 578.976 1052.09 578.976C1051.21 578.976 1050.53 579.35 1050.11 580.075C1049.83 580.636 1049.68 581.408 1049.68 582.274V587.84H1046.71V576.52ZM1056.76 574.719C1055.7 574.719 1054.95 574.041 1054.95 573.059C1054.95 572.1 1055.7 571.398 1056.76 571.398C1057.81 571.398 1058.56 572.1 1058.56 573.059C1058.56 574.041 1057.81 574.719 1056.76 574.719ZM1055.26 576.52H1058.25V587.84H1055.26V576.52ZM1069.83 584.378L1070.67 586.577C1070.44 586.787 1069.27 588.097 1066.25 588.097C1063.16 588.097 1060.31 585.969 1060.31 582.274C1060.31 578.555 1063.26 576.31 1066.3 576.31C1069.15 576.31 1070.27 577.456 1070.58 577.76L1069.76 580.005C1069.41 579.677 1068.4 578.812 1066.65 578.812C1064.87 578.812 1063.44 580.052 1063.44 582.133C1063.44 584.215 1064.87 585.571 1066.81 585.571C1068.75 585.571 1069.83 584.378 1069.83 584.378ZM1074.61 583.139C1074.89 584.94 1076.27 585.805 1077.98 585.805C1079.5 585.805 1080.86 585.127 1081.39 584.659L1082.56 586.273C1081.93 586.928 1080.22 588.097 1077.46 588.097C1074.05 588.097 1071.52 586.016 1071.52 582.367C1071.52 578.742 1074.17 576.31 1077.39 576.31C1080.88 576.31 1082.98 578.602 1082.98 581.619C1082.98 582.203 1082.94 583.139 1082.94 583.139H1074.61ZM1077.37 578.531C1075.59 578.531 1074.66 579.771 1074.56 581.198H1079.99C1079.94 579.958 1079.48 578.531 1077.37 578.531Z" fill="black"/>
<path d="M1254.38 544.014H1259.58C1261.19 544.014 1262.59 544.341 1263.62 545.206C1264.67 546.072 1265.31 547.218 1265.31 548.855C1265.31 550.492 1264.67 551.662 1263.62 552.527C1262.59 553.392 1261.19 553.79 1259.58 553.79H1257.45V560.151H1254.38V544.014ZM1259.2 551.404C1260.14 551.404 1260.77 551.17 1261.28 550.796C1261.8 550.422 1262.17 549.767 1262.17 548.855C1262.17 547.966 1261.73 547.311 1261.21 546.937C1260.7 546.563 1260.07 546.399 1259.13 546.399H1257.42V551.404H1259.2ZM1267.12 548.832H1270.09L1270.05 550.656H1270.12C1270.56 549.44 1271.68 548.621 1272.9 548.621C1273.67 548.621 1274.09 548.832 1274.09 548.832L1273.88 551.428H1273.74C1273.41 551.334 1272.9 551.287 1272.5 551.287C1271.61 551.287 1270.93 551.662 1270.51 552.387C1270.23 552.948 1270.09 553.72 1270.09 554.585V560.151H1267.12V548.832ZM1280.91 560.409C1277.42 560.409 1274.76 558.117 1274.76 554.538C1274.76 550.96 1277.42 548.621 1280.91 548.621C1284.37 548.621 1287.04 550.96 1287.04 554.538C1287.04 558.117 1284.37 560.409 1280.91 560.409ZM1283.95 554.468C1283.95 552.527 1282.83 551.03 1280.91 551.03C1278.94 551.03 1277.87 552.527 1277.87 554.468C1277.87 556.409 1278.94 557.93 1280.91 557.93C1282.83 557.93 1283.95 556.409 1283.95 554.468ZM1303.17 553.813C1303.17 552.433 1302.87 551.077 1301.4 551.077C1299.9 551.077 1299.13 552.363 1299.13 554.304V560.151H1296.13V553.79C1296.13 552.246 1295.74 551.077 1294.31 551.077C1292.77 551.077 1292.09 552.527 1292.09 554.304V560.151H1289.09V548.832H1292.09L1292.06 550.539H1292.13C1292.65 549.486 1294.03 548.621 1295.5 548.621C1297.14 548.621 1298.12 549.276 1298.66 550.773C1299.46 549.393 1300.74 548.621 1302.38 548.621C1305.35 548.621 1306.17 550.726 1306.17 553.322V560.151H1303.17V553.813ZM1314.3 560.409C1310.82 560.409 1308.15 558.117 1308.15 554.538C1308.15 550.96 1310.82 548.621 1314.3 548.621C1317.76 548.621 1320.43 550.96 1320.43 554.538C1320.43 558.117 1317.76 560.409 1314.3 560.409ZM1317.34 554.468C1317.34 552.527 1316.22 551.03 1314.3 551.03C1312.34 551.03 1311.26 552.527 1311.26 554.468C1311.26 556.409 1312.34 557.93 1314.3 557.93C1316.22 557.93 1317.34 556.409 1317.34 554.468ZM1325.97 555.754C1325.97 557.485 1326.28 557.906 1327.33 557.906C1327.94 557.906 1328.4 557.719 1328.4 557.719L1328.57 560.034C1328.43 560.081 1327.54 560.409 1326.28 560.409C1323.96 560.409 1323 559.356 1323 556.409V551.17H1321.32V548.855H1323V545.627H1325.97V548.855H1328.59V551.17H1325.97V555.754ZM1331.89 547.031C1330.84 547.031 1330.09 546.352 1330.09 545.37C1330.09 544.411 1330.84 543.71 1331.89 543.71C1332.94 543.71 1333.69 544.411 1333.69 545.37C1333.69 546.352 1332.94 547.031 1331.89 547.031ZM1330.39 548.832H1333.38V560.151H1330.39V548.832ZM1341.69 560.409C1338.2 560.409 1335.53 558.117 1335.53 554.538C1335.53 550.96 1338.2 548.621 1341.69 548.621C1345.15 548.621 1347.81 550.96 1347.81 554.538C1347.81 558.117 1345.15 560.409 1341.69 560.409ZM1344.73 554.468C1344.73 552.527 1343.6 551.03 1341.69 551.03C1339.72 551.03 1338.64 552.527 1338.64 554.468C1338.64 556.409 1339.72 557.93 1341.69 557.93C1343.6 557.93 1344.73 556.409 1344.73 554.468ZM1357.38 554.094C1357.38 552.41 1357.07 551.077 1355.34 551.077C1353.5 551.077 1352.86 552.62 1352.86 554.515V560.151H1349.87V548.832H1352.86L1352.84 550.539H1352.91C1353.52 549.346 1354.67 548.621 1356.3 548.621C1359.55 548.621 1360.37 550.726 1360.37 553.439V560.151H1357.38V554.094ZM1369.64 558.842C1369.18 559.66 1367.87 560.409 1366.18 560.409C1363.98 560.409 1362.21 559.216 1362.21 556.854C1362.21 554.491 1364.52 553.579 1366.86 553.416L1369.57 553.229V552.924C1369.57 551.474 1368.62 550.796 1367.05 550.796C1365.55 550.796 1364.31 551.358 1363.82 551.732L1362.91 549.814C1363.77 549.299 1365.36 548.621 1367.33 548.621C1369.34 548.621 1370.49 549.136 1371.33 549.931C1372.15 550.726 1372.57 551.755 1372.57 553.673V560.151H1369.69L1369.64 558.842ZM1367.56 555.17C1365.97 555.263 1365.2 555.801 1365.2 556.76C1365.2 557.719 1365.93 558.374 1367.17 558.374C1368.33 558.374 1369.2 557.696 1369.6 557.134V555.053L1367.56 555.17ZM1375.25 544.014H1378.22V560.151H1375.25V544.014ZM1294.41 573.422L1294.45 573.445C1295.37 572.089 1296.72 571.574 1298.22 571.574C1301.54 571.574 1303.58 574.147 1303.58 577.515C1303.58 580.719 1301.45 583.362 1298.01 583.362C1296.28 583.362 1295.32 582.754 1294.38 581.631L1294.34 581.655C1294.36 582.192 1294.38 582.707 1294.38 583.502V587.431H1291.41V571.832H1294.45L1294.41 573.422ZM1297.38 574.007C1295.58 574.007 1294.31 575.387 1294.31 577.515C1294.31 579.409 1295.55 581.07 1297.47 581.07C1299.41 581.07 1300.54 579.409 1300.54 577.515C1300.54 575.55 1299.32 574.007 1297.38 574.007ZM1305.66 571.832H1308.64L1308.59 573.656H1308.66C1309.1 572.44 1310.23 571.621 1311.44 571.621C1312.21 571.621 1312.63 571.832 1312.63 571.832L1312.42 574.428H1312.28C1311.96 574.334 1311.44 574.287 1311.04 574.287C1310.16 574.287 1309.48 574.662 1309.06 575.387C1308.78 575.948 1308.64 576.72 1308.64 577.585V583.151H1305.66V571.832ZM1315.71 570.031C1314.65 570.031 1313.9 569.352 1313.9 568.37C1313.9 567.411 1314.65 566.71 1315.71 566.71C1316.76 566.71 1317.51 567.411 1317.51 568.37C1317.51 569.352 1316.76 570.031 1315.71 570.031ZM1314.21 571.832H1317.2V583.151H1314.21V571.832ZM1328.78 579.69L1329.62 581.888C1329.39 582.099 1328.22 583.409 1325.2 583.409C1322.11 583.409 1319.26 581.28 1319.26 577.585C1319.26 573.866 1322.21 571.621 1325.25 571.621C1328.1 571.621 1329.22 572.767 1329.53 573.071L1328.71 575.316C1328.36 574.989 1327.35 574.124 1325.6 574.124C1323.82 574.124 1322.39 575.363 1322.39 577.445C1322.39 579.526 1323.82 580.883 1325.76 580.883C1327.7 580.883 1328.78 579.69 1328.78 579.69ZM1333.56 578.45C1333.84 580.251 1335.22 581.117 1336.93 581.117C1338.45 581.117 1339.81 580.438 1340.34 579.971L1341.51 581.584C1340.88 582.239 1339.17 583.409 1336.41 583.409C1333 583.409 1330.47 581.327 1330.47 577.679C1330.47 574.053 1333.12 571.621 1336.34 571.621C1339.83 571.621 1341.93 573.913 1341.93 576.93C1341.93 577.515 1341.89 578.45 1341.89 578.45H1333.56ZM1336.32 573.843C1334.54 573.843 1333.61 575.083 1333.51 576.509H1338.94C1338.89 575.27 1338.43 573.843 1336.32 573.843Z" fill="black"/>
<path d="M183.467 247.679V297.195C183.467 307.019 191.431 314.983 201.255 314.983H582.786M379.927 175.467V277.679C379.927 287.503 387.891 295.467 397.715 295.467H582.786M183.467 389.98V353.608C183.467 343.784 191.431 335.821 201.255 335.821H586.112M379.927 448.387V371.139C379.927 361.316 387.891 353.352 397.715 353.352H591.896" stroke="#0B0723" stroke-width="1.27052"/>
<path d="M1317.75 175.467V298.722C1317.75 308.545 1309.79 316.509 1299.96 316.509H827.56M1055.03 175.467V277.679C1055.03 287.503 1047.07 295.467 1037.25 295.467H827.56M1317.75 448.387V353.608C1317.75 343.784 1309.79 335.821 1299.96 335.821H827.56M1055.03 448.387V371.139C1055.03 361.316 1047.07 353.352 1037.25 353.352H818.002" stroke="#0B0723" stroke-width="1.27052"/>
<path d="M574.844 295.907C575.092 295.659 575.092 295.257 574.844 295.009L570.801 290.966C570.553 290.718 570.15 290.718 569.902 290.966C569.654 291.214 569.654 291.616 569.902 291.864L573.496 295.458L569.902 299.052C569.654 299.3 569.654 299.702 569.902 299.95C570.15 300.198 570.553 300.198 570.801 299.95L574.844 295.907ZM529.596 296.093H574.394V294.823H529.596V296.093Z" fill="#0B0723"/>
<path d="M576.114 315.438C576.362 315.19 576.362 314.788 576.114 314.54L572.071 310.497C571.823 310.249 571.421 310.249 571.173 310.497C570.925 310.745 570.925 311.148 571.173 311.396L574.766 314.989L571.173 318.583C570.925 318.831 570.925 319.233 571.173 319.481C571.421 319.729 571.823 319.729 572.071 319.481L576.114 315.438ZM530.866 315.625H575.665V314.354H530.866V315.625Z" fill="#0B0723"/>
<path d="M579.926 336.258C580.174 336.01 580.174 335.607 579.926 335.359L575.883 331.317C575.635 331.069 575.233 331.069 574.984 331.317C574.736 331.565 574.736 331.967 574.984 332.215L578.578 335.809L574.984 339.402C574.736 339.65 574.736 340.052 574.984 340.301C575.233 340.549 575.635 340.549 575.883 340.301L579.926 336.258ZM534.678 336.444H579.476V335.173H534.678V336.444Z" fill="#0B0723"/>
<path d="M585.007 353.755C585.255 353.507 585.255 353.105 585.007 352.856L580.964 348.814C580.716 348.566 580.314 348.566 580.066 348.814C579.818 349.062 579.818 349.464 580.066 349.712L583.66 353.306L580.066 356.899C579.818 357.147 579.818 357.55 580.066 357.798C580.314 358.046 580.716 358.046 580.964 357.798L585.007 353.755ZM539.76 353.941H584.558V352.67H539.76V353.941Z" fill="#0B0723"/>
<path d="M856.941 295.907C856.693 295.659 856.693 295.257 856.941 295.009L860.984 290.966C861.232 290.718 861.634 290.718 861.882 290.966C862.13 291.214 862.13 291.616 861.882 291.864L858.289 295.458L861.882 299.052C862.13 299.3 862.13 299.702 861.882 299.95C861.634 300.198 861.232 300.198 860.984 299.95L856.941 295.907ZM902.189 296.093H857.39V294.823H902.189V296.093Z" fill="#0B0723"/>
<path d="M853.44 316.664C853.192 316.416 853.192 316.014 853.44 315.766L857.482 311.723C857.731 311.475 858.133 311.475 858.381 311.723C858.629 311.971 858.629 312.373 858.381 312.621L854.787 316.215L858.381 319.808C858.629 320.057 858.629 320.459 858.381 320.707C858.133 320.955 857.731 320.955 857.482 320.707L853.44 316.664ZM898.687 316.85H853.889V315.58H898.687V316.85Z" fill="#0B0723"/>
<path d="M848.538 335.97C848.29 335.722 848.29 335.319 848.538 335.071L852.581 331.029C852.829 330.78 853.231 330.78 853.479 331.029C853.728 331.277 853.728 331.679 853.479 331.927L849.886 335.521L853.479 339.114C853.728 339.362 853.728 339.764 853.479 340.012C853.231 340.261 852.829 340.261 852.581 340.012L848.538 335.97ZM893.786 336.156H848.987V334.885H893.786V336.156Z" fill="#0B0723"/>
<path d="M842.76 353.907C842.512 353.659 842.512 353.257 842.76 353.009L846.803 348.966C847.051 348.718 847.454 348.718 847.702 348.966C847.95 349.214 847.95 349.616 847.702 349.864L844.108 353.458L847.702 357.052C847.95 357.3 847.95 357.702 847.702 357.95C847.454 358.198 847.051 358.198 846.803 357.95L842.76 353.907ZM888.008 354.093H843.21V352.823H888.008V354.093Z" fill="#0B0723"/>
<path d="M713.269 437.312C785.894 437.312 844.768 378.438 844.768 305.813C844.768 233.188 785.894 174.314 713.269 174.314C640.644 174.314 581.77 233.188 581.77 305.813C581.77 378.438 640.644 437.312 713.269 437.312Z" fill="white"/>
<path opacity="0.4" d="M658.561 259.63C660.226 258.403 662.193 257.483 664.312 257.023C662.193 257.33 660.226 258.25 658.561 259.63Z" fill="#CCCCCC"/>
<path opacity="0.4" d="M651.6 274.348C651.6 271.895 652.054 269.596 652.811 267.449C652.054 269.442 651.6 271.895 651.6 274.348Z" fill="#CCCCCC"/>
<path opacity="0.4" d="M667.49 256.564C666.43 256.564 665.371 256.717 664.312 256.871C665.371 256.717 666.43 256.564 667.49 256.564Z" fill="#CCCCCC"/>
<path opacity="0.4" d="M777.814 335.52C777.814 340.426 775.998 344.872 773.123 348.091C775.998 344.872 777.814 340.426 777.814 335.52Z" fill="#CCCCCC"/>
<path opacity="0.4" d="M761.924 353.304C762.983 353.304 764.042 353.151 765.102 352.998C764.042 353.304 762.983 353.304 761.924 353.304Z" fill="#CCCCCC"/>
<path opacity="0.4" d="M770.853 350.392C769.188 351.618 767.221 352.538 765.102 352.998C767.221 352.538 769.037 351.618 770.853 350.392Z" fill="#CCCCCC"/>
<path opacity="0.4" d="M776.604 267.449C777.36 269.596 777.814 271.895 777.814 274.348C777.814 271.895 777.36 269.442 776.604 267.449Z" fill="#CCCCCC"/>
<path opacity="0.4" d="M761.924 256.564C762.983 256.564 764.042 256.717 765.102 256.871C764.042 256.717 762.983 256.564 761.924 256.564Z" fill="#CCCCCC"/>
<path opacity="0.4" d="M765.102 256.871C767.221 257.331 769.037 258.25 770.853 259.477C769.037 258.25 767.221 257.331 765.102 256.871Z" fill="#CCCCCC"/>
<path d="M638.131 296.118C634.347 296.118 631.321 299.184 631.321 303.017C631.321 306.85 634.347 309.916 638.131 309.916C641.914 309.916 644.941 306.85 644.941 303.017C644.789 299.184 641.763 296.118 638.131 296.118Z" fill="#28D3AA"/>
<path d="M788.408 296.118C784.624 296.118 781.597 299.184 781.597 303.017C781.597 306.85 784.624 309.916 788.408 309.916C792.191 309.916 795.218 306.85 795.218 303.017C795.218 299.184 792.191 296.118 788.408 296.118Z" fill="#28D3AA"/>
<path opacity="0.4" d="M721.517 234.18C721.517 238.013 718.49 241.079 714.707 241.079C710.923 241.079 707.896 238.013 707.896 234.18C707.896 230.348 710.923 227.281 714.707 227.281C718.49 227.281 721.517 230.348 721.517 234.18Z" fill="#231F20"/>
<path d="M714.858 256.564V240.926" stroke="#3C5BFF" stroke-width="6.55887" stroke-miterlimit="10"/>
<path d="M776.755 267.449C775.544 264.23 773.577 261.623 771.004 259.63C768.431 257.79 765.404 256.564 762.075 256.564H667.641C664.312 256.564 661.285 257.637 658.712 259.63C656.14 261.47 654.172 264.23 652.962 267.449C652.205 269.596 651.751 271.895 651.751 274.348V293.206V312.676V335.673C651.751 340.579 653.567 345.025 656.442 348.245C657.199 349.011 657.956 349.778 658.864 350.391C661.436 352.231 664.463 353.457 667.793 353.457H762.226C765.556 353.457 768.583 352.384 771.155 350.391C772.063 349.778 772.82 349.011 773.577 348.245C776.452 345.025 778.268 340.579 778.268 335.673V316.662V297.192V274.195C777.965 271.895 777.511 269.442 776.755 267.449Z" fill="#4056F4"/>
<path opacity="0.4" d="M664.312 352.998C662.193 352.538 660.377 351.618 658.561 350.392C660.226 351.618 662.193 352.538 664.312 352.998Z" fill="#CCCCCC"/>
<path opacity="0.4" d="M667.49 353.304C666.43 353.304 665.371 353.151 664.312 352.998C665.371 353.304 666.43 353.304 667.49 353.304Z" fill="#CCCCCC"/>
<path opacity="0.4" d="M651.6 335.52C651.6 340.426 653.416 344.872 656.291 348.091C653.416 344.872 651.6 340.426 651.6 335.52Z" fill="#CCCCCC"/>
<path d="M746.336 331.074C746.336 333.067 744.217 334.6 741.645 334.6H688.072C685.499 334.6 683.38 333.067 683.38 331.074V323.868C683.38 321.875 685.499 320.342 688.072 320.342H741.645C744.217 320.342 746.336 321.875 746.336 323.868V331.074Z" fill="white"/>
<path d="M688.98 300.718C692.072 300.718 694.579 298.178 694.579 295.046C694.579 291.913 692.072 289.373 688.98 289.373C685.887 289.373 683.38 291.913 683.38 295.046C683.38 298.178 685.887 300.718 688.98 300.718Z" fill="white"/>
<path d="M740.737 300.718C743.829 300.718 746.336 298.178 746.336 295.046C746.336 291.913 743.829 289.373 740.737 289.373C737.644 289.373 735.137 291.913 735.137 295.046C735.137 298.178 737.644 300.718 740.737 300.718Z" fill="white"/>
<path d="M723.636 234.18C723.636 239.086 719.55 243.226 714.707 243.226C709.713 243.226 705.778 239.24 705.778 234.18C705.778 229.274 709.864 225.135 714.707 225.135C719.701 225.135 723.636 229.121 723.636 234.18Z" fill="#28D3AA"/>
<path opacity="0.4" d="M658.561 259.63C660.226 258.403 662.193 257.483 664.312 257.023C662.193 257.33 660.226 258.25 658.561 259.63Z" fill="#CCCCCC"/>
<path opacity="0.4" d="M651.6 274.348C651.6 271.895 652.054 269.596 652.811 267.449C652.054 269.442 651.6 271.895 651.6 274.348Z" fill="#CCCCCC"/>
<path opacity="0.4" d="M667.49 256.564C666.43 256.564 665.371 256.717 664.312 256.871C665.371 256.717 666.43 256.564 667.49 256.564Z" fill="#CCCCCC"/>
<path opacity="0.4" d="M777.814 335.52C777.814 340.426 775.998 344.872 773.123 348.091C775.998 344.872 777.814 340.426 777.814 335.52Z" fill="#CCCCCC"/>
<path opacity="0.4" d="M761.924 353.304C762.983 353.304 764.042 353.151 765.102 352.998C764.042 353.304 762.983 353.304 761.924 353.304Z" fill="#CCCCCC"/>
<path opacity="0.4" d="M770.853 350.392C769.188 351.618 767.221 352.538 765.102 352.998C767.221 352.538 769.037 351.618 770.853 350.392Z" fill="#CCCCCC"/>
<path opacity="0.4" d="M776.604 267.449C777.36 269.596 777.814 271.895 777.814 274.348C777.814 271.895 777.36 269.442 776.604 267.449Z" fill="#CCCCCC"/>
<path opacity="0.4" d="M761.924 256.564C762.983 256.564 764.042 256.717 765.102 256.871C764.042 256.717 762.983 256.564 761.924 256.564Z" fill="#CCCCCC"/>
<path opacity="0.4" d="M765.102 256.871C767.221 257.331 769.037 258.25 770.853 259.477C769.037 258.25 767.221 257.331 765.102 256.871Z" fill="#CCCCCC"/>
<path d="M638.131 296.118C634.347 296.118 631.321 299.184 631.321 303.017C631.321 306.85 634.347 309.916 638.131 309.916C641.914 309.916 644.941 306.85 644.941 303.017C644.789 299.184 641.763 296.118 638.131 296.118Z" fill="#3C5BFF"/>
<path d="M788.408 296.118C784.624 296.118 781.597 299.184 781.597 303.017C781.597 306.85 784.624 309.916 788.408 309.916C792.191 309.916 795.218 306.85 795.218 303.017C795.218 299.184 792.191 296.118 788.408 296.118Z" fill="#3C5BFF"/>
<path opacity="0.4" d="M721.517 234.18C721.517 238.013 718.49 241.079 714.707 241.079C710.923 241.079 707.896 238.013 707.896 234.18C707.896 230.348 710.923 227.281 714.707 227.281C718.49 227.281 721.517 230.348 721.517 234.18Z" fill="#231F20"/>
<path d="M714.858 256.564V240.926" stroke="#0B0723" stroke-width="6.55887" stroke-miterlimit="10"/>
<path d="M775.963 267.747L775.964 267.749C776.679 269.634 777.122 271.986 777.422 274.251V297.192V316.662V335.673C777.422 340.363 775.689 344.602 772.96 347.666C772.2 348.436 771.504 349.135 770.682 349.69L770.659 349.706L770.637 349.723C768.209 351.604 765.364 352.612 762.226 352.612H667.793C664.678 352.612 661.82 351.465 659.356 349.703L659.347 349.697L659.337 349.69C658.515 349.135 657.819 348.436 657.059 347.666C654.33 344.602 652.597 340.363 652.597 335.673V312.676V293.206V274.348C652.597 272.005 653.03 269.803 653.756 267.739C654.919 264.651 656.793 262.043 659.204 260.318L659.218 260.309L659.23 260.299C661.658 258.418 664.504 257.41 667.641 257.41H762.075C765.184 257.41 768.038 258.552 770.499 260.309C772.943 262.206 774.81 264.681 775.963 267.747Z" fill="white" stroke="#0B0723" stroke-width="1.69152"/>
<path opacity="0.4" d="M664.312 352.998C662.193 352.538 660.377 351.618 658.561 350.392C660.226 351.618 662.193 352.538 664.312 352.998Z" fill="#CCCCCC"/>
<path opacity="0.4" d="M667.49 353.304C666.43 353.304 665.371 353.151 664.312 352.998C665.371 353.304 666.43 353.304 667.49 353.304Z" fill="#CCCCCC"/>
<path opacity="0.4" d="M651.6 335.52C651.6 340.426 653.416 344.872 656.291 348.091C653.416 344.872 651.6 340.426 651.6 335.52Z" fill="#CCCCCC"/>
<path d="M745.457 331.074C745.457 331.734 745.111 332.374 744.431 332.879C743.748 333.387 742.764 333.721 741.645 333.721H688.072C686.952 333.721 685.969 333.387 685.285 332.879C684.605 332.374 684.259 331.734 684.259 331.074V323.868C684.259 323.209 684.605 322.569 685.285 322.064C685.969 321.556 686.952 321.221 688.072 321.221H741.645C742.764 321.221 743.748 321.556 744.431 322.064C745.111 322.569 745.457 323.209 745.457 323.868V331.074Z" stroke="black" stroke-width="1.75813"/>
<path d="M688.98 300.718C692.072 300.718 694.579 298.178 694.579 295.046C694.579 291.913 692.072 289.373 688.98 289.373C685.887 289.373 683.38 291.913 683.38 295.046C683.38 298.178 685.887 300.718 688.98 300.718Z" fill="#0B0723"/>
<path d="M740.737 300.718C743.829 300.718 746.336 298.178 746.336 295.046C746.336 291.913 743.829 289.373 740.737 289.373C737.644 289.373 735.137 291.913 735.137 295.046C735.137 298.178 737.644 300.718 740.737 300.718Z" fill="#0B0723"/>
<path d="M723.636 234.18C723.636 239.086 719.55 243.226 714.707 243.226C709.713 243.226 705.778 239.24 705.778 234.18C705.778 229.274 709.864 225.135 714.707 225.135C719.701 225.135 723.636 229.121 723.636 234.18Z" fill="#3C5BFF"/>
<rect x="1135.49" y="247.119" width="111.636" height="127.659" transform="rotate(-2.57826 1135.49 247.119)" fill="#3C5BFF"/>
<path d="M381.348 537.308C404.024 537.308 422.407 518.902 422.407 496.196C422.407 473.49 404.024 455.083 381.348 455.083C358.671 455.083 340.288 473.49 340.288 496.196C340.288 518.902 358.671 537.308 381.348 537.308Z" fill="#4056F4"/>
<path d="M368.505 503.324C368.505 507.726 372.553 511.295 377.546 511.295H380.56C382.291 511.295 383.908 510.866 385.283 510.122M389.602 487.384C389.602 482.982 385.554 479.414 380.56 479.414H377.546C372.553 479.414 368.505 482.982 368.505 487.384C368.505 491.786 372.553 495.354 377.546 495.354H380.56C382.291 495.354 383.908 495.783 385.283 496.526M379.053 475.429V515.28" stroke="white" stroke-width="2.34417" stroke-linecap="round" stroke-linejoin="round"/>
<path d="M396.049 505.903C397.667 505.903 398.979 504.591 398.979 502.973C398.979 501.354 397.667 500.042 396.049 500.042C394.431 500.042 393.119 501.354 393.119 502.973C393.119 504.591 394.431 505.903 396.049 505.903Z" stroke="white" stroke-width="2.34417" stroke-linecap="round" stroke-linejoin="round"/>
<path opacity="0.5" fill-rule="evenodd" clip-rule="evenodd" d="M402.648 506.56C402.594 506.266 402.63 505.963 402.751 505.69C402.866 505.422 403.056 505.194 403.299 505.033C403.542 504.872 403.827 504.786 404.118 504.784H404.2C404.68 504.784 405.141 504.594 405.481 504.254C405.821 503.914 406.011 503.453 406.011 502.973C406.011 502.493 405.821 502.032 405.481 501.692C405.141 501.352 404.68 501.162 404.2 501.162H404.046C403.755 501.16 403.47 501.074 403.227 500.913C402.984 500.752 402.793 500.524 402.678 500.256V500.183C402.558 499.91 402.522 499.607 402.575 499.313C402.628 499.02 402.769 498.748 402.977 498.535L403.032 498.481C403.2 498.312 403.334 498.113 403.425 497.893C403.516 497.673 403.563 497.437 403.563 497.199C403.563 496.961 403.516 496.725 403.425 496.505C403.334 496.286 403.2 496.086 403.032 495.918C402.863 495.749 402.664 495.616 402.444 495.524C402.224 495.433 401.988 495.386 401.75 495.386C401.512 495.386 401.276 495.433 401.056 495.524C400.837 495.616 400.637 495.749 400.469 495.918L400.414 495.972C400.201 496.181 399.93 496.321 399.636 496.374C399.342 496.427 399.039 496.391 398.766 496.271C398.498 496.156 398.269 495.965 398.109 495.722C397.948 495.479 397.861 495.195 397.86 494.903V494.822C397.86 494.341 397.669 493.881 397.33 493.541C396.99 493.201 396.529 493.01 396.049 493.01C395.568 493.01 395.108 493.201 394.768 493.541C394.428 493.881 394.237 494.341 394.237 494.822V494.976C394.236 495.267 394.15 495.552 393.989 495.795C393.828 496.038 393.599 496.228 393.332 496.343H393.259C392.986 496.464 392.683 496.5 392.389 496.446C392.095 496.393 391.824 496.253 391.611 496.044L391.556 495.99C391.388 495.822 391.188 495.688 390.968 495.597C390.749 495.506 390.513 495.459 390.275 495.459C390.037 495.459 389.801 495.506 389.581 495.597C389.361 495.688 389.161 495.822 388.993 495.99C388.825 496.158 388.691 496.358 388.6 496.578C388.509 496.798 388.462 497.034 388.462 497.272C388.462 497.51 388.509 497.745 388.6 497.965C388.691 498.185 388.825 498.385 388.993 498.553L389.048 498.608C389.256 498.821 389.396 499.092 389.45 499.386C389.503 499.68 389.467 499.983 389.346 500.256C389.243 500.537 389.057 500.781 388.813 500.956C388.569 501.13 388.279 501.227 387.979 501.234H387.897C387.417 501.234 386.956 501.425 386.616 501.765C386.277 502.104 386.086 502.565 386.086 503.045C386.086 503.526 386.277 503.987 386.616 504.326C386.956 504.666 387.417 504.857 387.897 504.857H388.051C388.343 504.858 388.627 504.944 388.87 505.105C389.113 505.266 389.304 505.495 389.419 505.763C389.539 506.036 389.575 506.339 389.522 506.633C389.469 506.926 389.329 507.197 389.12 507.411L389.066 507.465C388.897 507.634 388.764 507.833 388.673 508.053C388.581 508.273 388.534 508.509 388.534 508.747C388.534 508.985 388.581 509.221 388.673 509.441C388.764 509.66 388.897 509.86 389.066 510.028C389.234 510.197 389.434 510.33 389.654 510.422C389.874 510.513 390.109 510.56 390.347 510.56C390.585 510.56 390.821 510.513 391.041 510.422C391.261 510.33 391.461 510.197 391.629 510.028L391.683 509.974C391.897 509.765 392.168 509.625 392.462 509.572C392.755 509.519 393.058 509.555 393.332 509.675C393.613 509.779 393.857 509.964 394.031 510.208C394.206 510.452 394.303 510.743 394.31 511.043V511.124C394.31 511.605 394.501 512.065 394.84 512.405C395.18 512.745 395.641 512.936 396.121 512.936C396.602 512.936 397.062 512.745 397.402 512.405C397.742 512.065 397.933 511.605 397.933 511.124V510.97C397.934 510.679 398.02 510.394 398.181 510.151C398.342 509.908 398.57 509.718 398.838 509.603C399.111 509.482 399.414 509.446 399.708 509.499C400.002 509.553 400.273 509.693 400.487 509.902L400.541 509.956C400.709 510.124 400.909 510.258 401.129 510.349C401.349 510.44 401.584 510.487 401.823 510.487C402.061 510.487 402.296 510.44 402.516 510.349C402.736 510.258 402.936 510.124 403.104 509.956C403.273 509.788 403.406 509.588 403.497 509.368C403.588 509.148 403.635 508.912 403.635 508.674C403.635 508.436 403.588 508.201 403.497 507.981C403.406 507.761 403.273 507.561 403.104 507.393L403.05 507.338C402.841 507.125 402.701 506.854 402.648 506.56ZM398.979 502.973C398.979 504.591 397.667 505.903 396.049 505.903C394.43 505.903 393.119 504.591 393.119 502.973C393.119 501.355 394.43 500.043 396.049 500.043C397.667 500.043 398.979 501.355 398.979 502.973Z" fill="white"/>
<path d="M1317.31 120.385C1339.99 120.385 1358.37 101.979 1358.37 79.2728C1358.37 56.5669 1339.99 38.1602 1317.31 38.1602C1294.63 38.1602 1276.25 56.5669 1276.25 79.2728C1276.25 101.979 1294.63 120.385 1317.31 120.385Z" fill="#4056F4"/>
<g opacity="0.5">
<path d="M1305.15 61.0534C1305.15 60.2288 1305.15 59.8165 1305.26 59.4863C1305.46 58.9329 1305.89 58.4969 1306.43 58.2955C1306.76 58.1753 1307.16 58.1753 1307.97 58.1753H1325.77C1326.57 58.1753 1326.98 58.1753 1327.3 58.2955C1327.85 58.4969 1328.27 58.9329 1328.47 59.4863C1328.59 59.8165 1328.59 60.2288 1328.59 61.0534V72.1231C1328.59 78.7258 1323.34 84.0784 1316.87 84.0784C1310.39 84.0784 1305.15 78.7258 1305.15 72.1231V61.0534Z" fill="white"/>
<path d="M1307.1 99.4848C1307.1 95.5721 1310.21 92.4002 1314.05 92.4002H1319.69C1323.52 92.4002 1326.63 95.5721 1326.63 99.4848C1326.63 99.9739 1326.25 100.37 1325.77 100.37H1307.97C1307.49 100.37 1307.1 99.9739 1307.1 99.4848Z" fill="white"/>
</g>
<path d="M1331.37 64.0356H1334.16C1335.11 64.0356 1335.59 64.0356 1335.97 64.1992C1336.47 64.4173 1336.87 64.8356 1337.08 65.3621C1337.23 65.757 1337.23 66.2577 1337.23 67.2589V68.3333C1337.23 70.3316 1337.23 71.3308 1337.02 72.1506C1336.46 74.3752 1334.8 76.1129 1332.67 76.7089C1331.89 76.9286 1332.11 76.9286 1330.2 76.9286" stroke="white" stroke-width="2.34417" stroke-linecap="round" stroke-linejoin="round"/>
<path d="M1303.24 64.0356H1300.46C1299.5 64.0356 1299.03 64.0356 1298.65 64.1992C1298.15 64.4173 1297.75 64.8356 1297.54 65.3621C1297.38 65.757 1297.38 66.2577 1297.38 67.2589V68.3333C1297.38 70.3316 1297.38 71.3308 1297.59 72.1506C1298.16 74.3752 1299.82 76.1129 1301.94 76.7089C1302.73 76.9286 1302.51 76.9286 1304.42 76.9286" stroke="white" stroke-width="2.34417" stroke-linecap="round" stroke-linejoin="round"/>
<path d="M1317.31 86.3052L1317.31 88.0633L1317.31 89.8214" stroke="white" stroke-width="2.34417" stroke-linecap="round" stroke-linejoin="round"/>
<path d="M1317.31 527.467C1339.99 527.467 1358.37 509.06 1358.37 486.354C1358.37 463.648 1339.99 445.241 1317.31 445.241C1294.63 445.241 1276.25 463.648 1276.25 486.354C1276.25 509.06 1294.63 527.467 1317.31 527.467Z" fill="#4056F4"/>
<g clip-path="url(#clip0_2418_1794)">
<path d="M1334.15 486.685L1315.6 468.132L1302.12 467.932" stroke="white" stroke-width="2.34417" stroke-linecap="round" stroke-linejoin="round"/>
<path opacity="0.5" fill-rule="evenodd" clip-rule="evenodd" d="M1299.34 472.963C1299.56 472.743 1299.86 472.62 1300.17 472.62L1313.06 472.62C1313.37 472.62 1313.67 472.743 1313.89 472.963L1331.47 490.544C1331.93 491.002 1331.93 491.744 1331.47 492.202L1318.58 505.095C1318.36 505.315 1318.06 505.438 1317.75 505.438C1317.44 505.438 1317.14 505.315 1316.92 505.095L1299.34 487.513C1299.12 487.294 1299 486.995 1299 486.685L1299 473.792C1299 473.481 1299.12 473.183 1299.34 472.963ZM1309.55 480.824C1309.55 482.119 1308.5 483.169 1307.2 483.169C1305.91 483.169 1304.86 482.119 1304.86 480.824C1304.86 479.53 1305.91 478.48 1307.2 478.48C1308.5 478.48 1309.55 479.53 1309.55 480.824Z" fill="white"/>
</g>
<path d="M222.708 152.59C240.471 152.59 254.871 138.172 254.871 120.386C254.871 102.6 240.471 88.1816 222.708 88.1816C204.945 88.1816 190.546 102.6 190.546 120.386C190.546 138.172 204.945 152.59 222.708 152.59Z" fill="#4056F4"/>
<path opacity="0.5" d="M222.708 135.172C231.339 135.172 238.336 128.175 238.336 119.544C238.336 110.913 231.339 103.917 222.708 103.917C214.077 103.917 207.08 110.913 207.08 119.544C207.08 128.175 214.077 135.172 222.708 135.172Z" stroke="white" stroke-width="2.34417" stroke-linecap="round" stroke-linejoin="round"/>
<path d="M242.648 119.545L234.429 119.545M210.987 119.545H202.798M222.708 107.824V99.6382M222.708 139.471V131.266" stroke="white" stroke-width="2.34417" stroke-linecap="round" stroke-linejoin="round"/>
<path d="M434.041 96.0859H332.66V175.467H434.041V96.0859Z" fill="white" stroke="#0B0723" stroke-width="1.85439"/>
<path d="M364.963 110.312V175.467" stroke="#0B0723" stroke-width="1.85439"/>
<path d="M356.14 137.047L356.14 147.366" stroke="#0B0723" stroke-width="1.85439"/>
<path d="M316.069 175.467L448.805 175.467" stroke="#0B0723" stroke-width="1.85439"/>
<path d="M402.603 123.849L387.036 139.415" stroke="#0B0723" stroke-width="1.85439"/>
<path d="M411.027 126.392L389.716 147.703" stroke="#0B0723" stroke-width="1.85439"/>
<path d="M352.912 100.055C352.912 101.994 352.53 103.914 351.788 105.705C351.046 107.497 349.958 109.124 348.587 110.495C347.216 111.866 345.589 112.954 343.798 113.696C342.006 114.438 340.087 114.82 338.148 114.82C336.208 114.82 334.288 114.439 332.496 113.697C330.704 112.956 329.076 111.868 327.704 110.497C326.333 109.126 325.245 107.498 324.502 105.707C323.76 103.915 323.378 101.995 323.378 100.055L323.378 92.3218L330.192 68.8597L434.664 68.8125L441.496 92.1401V100.061C441.496 103.977 439.941 107.732 437.172 110.501C434.403 113.27 430.648 114.825 426.732 114.825C422.816 114.825 419.061 113.27 416.292 110.501C413.524 107.732 411.968 103.977 411.968 100.061" fill="#3C5BFF"/>
<path fill-rule="evenodd" clip-rule="evenodd" d="M352.912 100.056V100.056H382.44C382.44 101.995 382.058 103.915 381.316 105.706C380.574 107.497 379.486 109.125 378.115 110.496C376.744 111.867 375.117 112.955 373.326 113.697C371.534 114.439 369.614 114.82 367.676 114.82C365.737 114.82 363.817 114.439 362.026 113.697C360.234 112.955 358.607 111.867 357.236 110.496C355.865 109.125 354.777 107.497 354.035 105.706C353.301 103.933 352.919 102.034 352.912 100.116C352.904 102.035 352.522 103.934 351.787 105.707C351.045 107.499 349.957 109.127 348.585 110.498C347.214 111.869 345.585 112.956 343.794 113.698C342.002 114.44 340.081 114.821 338.142 114.82C336.203 114.82 334.283 114.438 332.492 113.696C330.701 112.954 329.073 111.867 327.702 110.496C326.331 109.125 325.244 107.497 324.502 105.706C323.76 103.915 323.378 101.995 323.378 100.056H352.912ZM411.968 100.056H441.496C441.496 101.995 441.114 103.915 440.372 105.706C439.631 107.497 438.543 109.125 437.172 110.496C435.801 111.867 434.173 112.954 432.382 113.696C430.591 114.438 428.671 114.82 426.732 114.82C424.793 114.82 422.874 114.438 421.082 113.696C419.291 112.954 417.663 111.867 416.292 110.496C414.921 109.125 413.834 107.497 413.092 105.706C412.35 103.915 411.968 101.995 411.968 100.056ZM410.844 105.706C411.586 103.915 411.968 101.995 411.968 100.056H382.44C382.44 101.995 382.822 103.915 383.564 105.706C384.306 107.497 385.393 109.125 386.764 110.496C388.135 111.867 389.763 112.955 391.554 113.697C393.345 114.439 395.265 114.82 397.204 114.82C399.143 114.82 401.063 114.439 402.854 113.697C404.645 112.955 406.273 111.867 407.644 110.496C409.015 109.125 410.102 107.497 410.844 105.706Z" fill="#3C5BFF"/>
<rect x="323.378" y="93.3511" width="118.118" height="6.70518" fill="#3C5BFF"/>
<path d="M441.496 93.3037L323.378 93.3037" stroke="#0B0723" stroke-width="1.85439"/>
<path d="M1221.54 256.312C1221.54 235.264 1207.97 218.201 1191.24 218.201C1174.51 218.201 1160.94 235.264 1160.94 256.312" stroke="#0B0723" stroke-width="2.54104"/>
<rect x="1125.08" y="243.958" width="109.878" height="125.901" transform="rotate(4.37189 1125.08 243.958)" fill="white" stroke="#0B0723" stroke-width="1.75813"/>
<path d="M1210.83 258.754C1210.83 237.706 1197.27 220.644 1180.53 220.644C1163.8 220.644 1150.23 237.706 1150.23 258.754" stroke="#0B0723" stroke-width="2.54104"/>
<circle cx="1150.23" cy="258.755" r="2.44318" fill="#3C5BFF"/>
<circle cx="1210.83" cy="258.755" r="2.44318" fill="#3C5BFF"/>
<path d="M1130.23 333.794L1093.82 367.428L1115.39 390.759L1151.79 357.124L1152.68 334.672L1130.23 333.794ZM1143.41 346.998C1142.87 347.486 1142.16 347.744 1141.43 347.715C1140.7 347.686 1140.02 347.372 1139.52 346.842C1139.03 346.303 1138.77 345.593 1138.8 344.866C1138.83 344.139 1139.14 343.452 1139.67 342.954C1140.21 342.464 1140.92 342.206 1141.65 342.234C1142.38 342.262 1143.06 342.574 1143.56 343.104C1144.05 343.643 1144.31 344.354 1144.28 345.083C1144.25 345.811 1143.94 346.499 1143.41 346.998Z" fill="#3C5BFF"/>
<path d="M1126.44 363.623C1126.64 364.102 1126.72 364.618 1126.68 365.132C1126.64 365.647 1126.48 366.145 1126.22 366.589C1125.55 367.628 1124.58 368.438 1123.44 368.911L1124.19 370.961L1122.82 371.455L1122.09 369.45C1120.62 369.982 1119.06 370.218 1117.5 370.145L1116.54 367.506C1117.33 367.579 1118.13 367.579 1118.92 367.506C1119.7 367.449 1120.48 367.313 1121.24 367.101L1120.13 364.006H1119.36C1118.19 364.034 1117.02 363.803 1115.94 363.329C1115.16 362.91 1114.56 362.207 1114.28 361.362C1114.1 360.91 1114.04 360.424 1114.09 359.942C1114.13 359.459 1114.29 358.995 1114.55 358.585C1115.23 357.563 1116.19 356.767 1117.33 356.302L1116.77 354.774L1118.14 354.274L1118.69 355.763C1120.13 355.296 1121.63 355.099 1123.14 355.18L1123.05 357.863C1121.87 357.811 1120.7 357.939 1119.57 358.241L1120.64 361.19C1121.73 361.179 1122.81 361.276 1123.88 361.479C1124.49 361.605 1125.06 361.869 1125.55 362.251C1125.96 362.622 1126.27 363.095 1126.44 363.623V363.623ZM1117.28 360.257C1117.32 360.393 1117.39 360.519 1117.49 360.625C1117.58 360.732 1117.7 360.816 1117.83 360.874C1118.22 361.009 1118.62 361.084 1119.03 361.096L1118.18 358.752C1117.37 359.19 1117.07 359.69 1117.28 360.257ZM1123.49 364.862C1123.44 364.731 1123.36 364.614 1123.25 364.518C1123.15 364.423 1123.03 364.35 1122.89 364.306C1122.49 364.175 1122.08 364.096 1121.66 364.073L1122.56 366.562C1123.41 366.056 1123.72 365.495 1123.49 364.862V364.862Z" fill="white"/>
<path d="M1139.21 343.173L1139.6 343.036V342.979C1140.25 342.643 1140.78 342.103 1141.09 341.437C1141.47 340.643 1141.52 339.734 1141.24 338.903L1141.24 338.903L1141.23 338.892C1140.93 338.061 1140.31 337.384 1139.51 337.006C1138.71 336.629 1137.8 336.581 1136.96 336.873L1136.96 336.873L1136.96 336.876C1136.13 337.18 1135.45 337.799 1135.07 338.598C1134.69 339.397 1134.65 340.313 1134.94 341.148L1134.94 341.148L1134.94 341.155C1135.24 341.986 1135.86 342.663 1136.66 343.04C1137.46 343.418 1138.38 343.466 1139.21 343.173ZM1131.96 325.978L1151.56 335.143L1142.39 354.751L1096.59 371.371L1086.15 342.599L1131.96 325.978Z" fill="white" stroke="black" stroke-width="1.17209"/>
<path d="M1118.69 348.48C1118.88 348.96 1118.96 349.477 1118.93 349.992C1118.89 350.507 1118.73 351.006 1118.47 351.452C1117.8 352.49 1116.83 353.3 1115.69 353.774L1116.44 355.818L1115.07 356.318L1114.34 354.307C1112.87 354.842 1111.31 355.078 1109.75 355.002L1108.79 352.363C1109.58 352.441 1110.37 352.441 1111.16 352.363C1111.95 352.305 1112.73 352.171 1113.49 351.963L1112.38 348.864H1111.62C1110.44 348.894 1109.27 348.663 1108.2 348.186C1107.41 347.774 1106.81 347.071 1106.53 346.225C1106.36 345.773 1106.3 345.287 1106.34 344.805C1106.39 344.323 1106.55 343.859 1106.8 343.448C1107.47 342.434 1108.43 341.64 1109.55 341.165L1108.99 339.637L1110.37 339.143L1110.92 340.631C1112.35 340.16 1113.86 339.962 1115.37 340.048L1115.27 342.725C1114.1 342.673 1112.93 342.802 1111.79 343.109L1112.86 346.053C1113.95 346.042 1115.04 346.141 1116.1 346.347C1116.71 346.472 1117.28 346.736 1117.77 347.119C1118.19 347.485 1118.51 347.954 1118.69 348.48V348.48ZM1109.52 345.147C1109.57 345.283 1109.64 345.407 1109.73 345.512C1109.83 345.617 1109.95 345.701 1110.08 345.758C1110.46 345.899 1110.87 345.976 1111.28 345.986L1110.42 343.636C1109.62 344.047 1109.32 344.553 1109.52 345.12V345.147ZM1115.74 349.752C1115.69 349.615 1115.61 349.491 1115.51 349.389C1115.41 349.287 1115.28 349.21 1115.14 349.163C1114.74 349.034 1114.33 348.958 1113.9 348.936L1114.8 351.424C1115.66 350.93 1115.97 350.374 1115.74 349.724V349.752Z" fill="#0B0723"/>
<path d="M225.082 437.204C225.082 458.013 208.213 474.882 187.403 474.882C166.594 474.882 149.725 458.013 149.725 437.204C149.725 416.395 166.594 399.525 187.403 399.525C208.213 399.525 225.082 416.395 225.082 437.204Z" fill="white" stroke="black" stroke-width="1.17209"/>
<path d="M178.945 513.654C178.945 534.463 162.075 551.333 141.266 551.333C120.457 551.333 103.588 534.463 103.588 513.654C103.588 492.845 120.457 475.976 141.266 475.976C162.075 475.976 178.945 492.845 178.945 513.654Z" fill="white" stroke="black" stroke-width="1.17209"/>
<path d="M263.346 513.654C263.346 534.463 246.477 551.333 225.668 551.333C204.859 551.333 187.989 534.463 187.989 513.654C187.989 492.845 204.859 475.976 225.668 475.976C246.477 475.976 263.346 492.845 263.346 513.654Z" fill="white" stroke="black" stroke-width="1.17209"/>
<path fill-rule="evenodd" clip-rule="evenodd" d="M198.937 437.706C198.939 439.222 198.642 440.722 198.063 442.123C197.484 443.523 196.635 444.795 195.563 445.867C194.492 446.938 193.22 447.788 191.819 448.367C190.419 448.946 188.918 449.243 187.403 449.241C184.344 449.241 181.41 448.025 179.247 445.862C177.084 443.699 175.868 440.765 175.868 437.706C175.868 434.647 177.084 431.713 179.247 429.55C181.41 427.387 184.344 426.172 187.403 426.172C190.462 426.172 193.396 427.387 195.559 429.55C197.722 431.713 198.937 434.647 198.937 437.706V437.706Z" fill="white" stroke="#0B0723" stroke-width="2.04287" stroke-miterlimit="10"/>
<path d="M187.403 419.446V412.988" stroke="#0B0723" stroke-width="2.04287" stroke-miterlimit="10"/>
<path d="M187.403 461.435V454.961" stroke="#0B0723" stroke-width="2.04287" stroke-miterlimit="10"/>
<path d="M169.646 437.204H163.187" stroke="#0B0723" stroke-width="2.04287" stroke-miterlimit="10"/>
<path d="M211.619 437.204H205.16" stroke="#0B0723" stroke-width="2.04287" stroke-miterlimit="10"/>
<path d="M174.847 449.76L170.274 454.333" stroke="#0B0723" stroke-width="2.04287" stroke-miterlimit="10"/>
<path d="M204.532 420.091L199.959 424.648" stroke="#0B0723" stroke-width="2.04287" stroke-miterlimit="10"/>
<path d="M199.959 449.76L204.532 454.333" stroke="#0B0723" stroke-width="2.04287" stroke-miterlimit="10"/>
<path d="M170.274 420.091L174.847 424.648" stroke="#0B0723" stroke-width="2.04287" stroke-miterlimit="10"/>
<path d="M147.08 500.737C147.08 500.58 147.08 500.407 147.08 500.25C147.08 498.733 146.478 497.278 145.405 496.205C144.332 495.132 142.877 494.53 141.36 494.53C140.608 494.528 139.862 494.674 139.166 494.961C138.471 495.247 137.838 495.668 137.305 496.2C136.773 496.731 136.35 497.362 136.061 498.057C135.773 498.752 135.625 499.497 135.625 500.25C135.625 500.407 135.625 500.486 135.625 500.737C135.986 505.09 141.36 512.02 141.36 512.02C146.546 504.304 147.08 500.737 147.08 500.737Z" fill="white" stroke="#0B0723" stroke-width="2.04287" stroke-miterlimit="10"/>
<path d="M131.256 503.016L130.816 502.812C130.119 502.522 129.371 502.374 128.617 502.376C127.862 502.378 127.115 502.529 126.419 502.821C125.724 503.114 125.093 503.541 124.564 504.079C124.034 504.617 123.617 505.254 123.336 505.955C123.046 506.652 122.898 507.399 122.9 508.154C122.902 508.908 123.053 509.655 123.345 510.351C123.638 511.047 124.065 511.677 124.603 512.207C125.141 512.736 125.778 513.153 126.478 513.435C126.626 513.508 126.778 513.571 126.934 513.623C131.083 514.975 139.506 512.68 139.506 512.68C134.32 504.917 131.256 503 131.256 503.016Z" fill="white" stroke="#0B0723" stroke-width="2.04287" stroke-miterlimit="10"/>
<path d="M127.013 516.781L126.605 517.048C125.999 517.493 125.486 518.053 125.097 518.695C124.707 519.338 124.448 520.051 124.334 520.794C124.22 521.537 124.254 522.295 124.433 523.024C124.613 523.754 124.934 524.441 125.379 525.047C125.822 525.654 126.381 526.168 127.023 526.559C127.665 526.95 128.378 527.211 129.121 527.326C129.864 527.441 130.622 527.409 131.352 527.231C132.083 527.053 132.771 526.733 133.377 526.289L133.77 525.99C137.07 523.13 139.475 514.707 139.475 514.707C130.235 515.147 127.013 516.766 127.013 516.781Z" fill="white" stroke="#0B0723" stroke-width="2.04287" stroke-miterlimit="10"/>
<path d="M136.615 526.917C136.615 527.09 136.615 527.247 136.615 527.404C136.659 528.155 136.851 528.89 137.18 529.566C137.509 530.243 137.969 530.847 138.533 531.346C139.096 531.844 139.753 532.225 140.465 532.468C141.177 532.712 141.93 532.812 142.68 532.763C143.431 532.717 144.165 532.523 144.84 532.193C145.515 531.864 146.119 531.404 146.617 530.841C147.115 530.277 147.496 529.621 147.74 528.91C147.984 528.199 148.086 527.447 148.039 526.697C148.039 526.54 148.039 526.461 148.039 526.21C147.41 521.888 141.628 515.32 141.628 515.32C136.976 523.318 136.599 526.917 136.615 526.917Z" fill="white" stroke="#0B0723" stroke-width="2.04287" stroke-miterlimit="10"/>
<path d="M150.71 524.921L151.118 525.173C151.777 525.536 152.5 525.767 153.247 525.851C153.995 525.935 154.751 525.871 155.474 525.662C156.196 525.453 156.87 525.104 157.458 524.635C158.045 524.165 158.534 523.584 158.897 522.925C159.273 522.264 159.514 521.534 159.604 520.778C159.695 520.023 159.634 519.256 159.424 518.525C159.215 517.793 158.862 517.11 158.385 516.517C157.909 515.923 157.319 515.431 156.65 515.068L156.226 514.832C152.234 513.041 143.654 514.408 143.654 514.408C147.866 522.737 150.694 524.921 150.71 524.921Z" fill="white" stroke="#0B0723" stroke-width="2.04287" stroke-miterlimit="10"/>
<path d="M156.194 512.618L156.634 512.413C157.295 512.055 157.878 511.569 158.351 510.985C158.824 510.4 159.177 509.729 159.391 509.008C159.604 508.287 159.673 507.531 159.593 506.783C159.514 506.035 159.288 505.311 158.928 504.65C158.574 503.986 158.091 503.398 157.509 502.92C156.926 502.442 156.255 502.084 155.534 501.867C154.812 501.649 154.055 501.576 153.305 501.652C152.556 501.728 151.829 501.951 151.166 502.309L150.741 502.529C147.08 504.933 143.56 512.948 143.56 512.948C152.784 513.812 156.194 512.633 156.194 512.618Z" fill="white" stroke="#0B0723" stroke-width="2.04287" stroke-miterlimit="10"/>
<path d="M225.574 492.659V525.125V533.752" fill="white"/>
<path d="M225.574 492.659V525.125V533.752" stroke="#0B0723" stroke-width="2.04287" stroke-miterlimit="10"/>
<path d="M220.199 530.154L225.573 525.125L231.057 530.154" fill="white"/>
<path d="M220.199 530.154L225.573 525.125L231.057 530.154" stroke="#0B0723" stroke-width="2.04287" stroke-miterlimit="10"/>
<path d="M230.995 496.369L225.621 501.397L220.136 496.369" fill="white"/>
<path d="M230.995 496.369L225.621 501.397L220.136 496.369" stroke="#0B0723" stroke-width="2.04287" stroke-miterlimit="10"/>
<path d="M208.02 503.267L236.086 519.562L243.55 523.9" fill="white"/>
<path d="M208.02 503.267L236.086 519.562L243.55 523.9" stroke="#0B0723" stroke-width="2.04287" stroke-miterlimit="10"/>
<path d="M237.736 526.744L236.086 519.562L243.205 517.347" fill="white"/>
<path d="M237.736 526.744L236.086 519.562L243.205 517.347" stroke="#0B0723" stroke-width="2.04287" stroke-miterlimit="10"/>
<path d="M213.944 500.438L215.594 507.619L208.476 509.835" fill="white"/>
<path d="M213.944 500.438L215.594 507.619L208.476 509.835" stroke="#0B0723" stroke-width="2.04287" stroke-miterlimit="10"/>
<path d="M243.33 502.89L215.249 519.17L207.784 523.507" fill="white"/>
<path d="M243.33 502.89L215.249 519.17L207.784 523.507" stroke="#0B0723" stroke-width="2.04287" stroke-miterlimit="10"/>
<path d="M213.599 526.351L215.249 519.169L208.146 516.954" fill="white"/>
<path d="M213.599 526.351L215.249 519.169L208.146 516.954" stroke="#0B0723" stroke-width="2.04287" stroke-miterlimit="10"/>
<path d="M237.407 500.061L235.757 507.243L242.86 509.458" fill="white"/>
<path d="M237.407 500.061L235.757 507.243L242.86 509.458" stroke="#0B0723" stroke-width="2.04287" stroke-miterlimit="10"/>
<defs>
<clipPath id="clip0_2418_1794">
<rect width="46.8835" height="46.8835" fill="white" transform="translate(1294.31 462.071)"/>
</clipPath>
</defs>
</svg>
